<svg xmlns="http://www.w3.org/2000/svg" viewBox="0 0 1200 500" fill="none" role="img" aria-label="KREBS K1, Seitenansicht"><defs><mask id="bck11E2A4Asolid2" maskUnits="userSpaceOnUse" x="0" y="0" width="1200" height="500"><path d="M 60.0 393.4 C 60.0 374.5 52.9 336.3 60.0 307.3 C 67.1 278.4 65.1 274.6 92.4 261.7 C 119.7 248.9 133.1 254.1 184.2 249.1 C 235.3 244.1 275.9 243.4 324.6 239.0 C 373.3 234.5 370.2 241.1 405.6 228.8 C 441.0 216.6 449.4 200.5 485.5 183.2 C 521.6 166.0 525.6 159.8 569.8 150.3 C 614.0 140.9 634.6 141.3 686.4 140.2 C 738.2 139.1 752.9 137.5 805.2 145.3 C 857.5 153.1 876.5 158.9 924.0 175.7 C 971.5 192.4 984.4 202.3 1021.2 221.2 C 1058.0 240.2 1067.2 245.0 1091.4 261.7 C 1115.6 278.5 1120.7 268.2 1131.4 297.2 C 1142.1 326.2 1138.1 372.3 1140.0 393.4 L 60.0 393.4 Z" fill="#fff"/><path d=" M 164.4 423.4 L 164.4 342.0 A 90.0 90.0 0 0 1 344.4 342.0 L 344.4 423.4 Z M 817.8 423.4 L 817.8 342.0 A 90.0 90.0 0 0 1 997.8 342.0 L 997.8 423.4 Z" fill="#000"/></mask><radialGradient id="shk11E2A4Asolid2" cx=".5" cy=".5" r=".5"><stop offset="0" stop-color="#0B0B0C" stop-opacity=".28"/><stop offset=".7" stop-color="#0B0B0C" stop-opacity=".07"/><stop offset="1" stop-color="#0B0B0C" stop-opacity="0"/></radialGradient></defs><ellipse cx="600" cy="437" rx="508" ry="16" fill="url(#shk11E2A4Asolid2)"/><circle cx="254" cy="342" r="88" fill="#17181C"/><circle cx="254" cy="342" r="75" fill="#DCDEE3"/><path d="M 273.9 342.0 L 320.2 362.3 L 322.1 329.7 Z" fill="#0B0B0C" fill-opacity=".20"/><path d="M 260.4 360.5 L 255.4 410.8 L 287.0 402.6 Z" fill="#0B0B0C" fill-opacity=".20"/><path d="M 238.7 353.4 L 189.2 364.2 L 206.9 391.8 Z" fill="#0B0B0C" fill-opacity=".20"/><path d="M 238.7 330.5 L 213.2 286.9 L 192.4 312.1 Z" fill="#0B0B0C" fill-opacity=".20"/><path d="M 260.4 323.5 L 294.1 285.7 L 263.6 273.8 Z" fill="#0B0B0C" fill-opacity=".20"/><path d="M 287.2 311.4 A 44.9 44.9 0 0 1 287.2 372.6" stroke="#D6392E" stroke-width="16.5" stroke-linecap="round" fill="none"/><circle cx="254" cy="342" r="11" fill="#0B0B0C" fill-opacity=".45"/><circle cx="908" cy="342" r="88" fill="#17181C"/><circle cx="908" cy="342" r="75" fill="#DCDEE3"/><path d="M 926.1 348.7 L 962.6 383.6 L 975.6 353.6 Z" fill="#0B0B0C" fill-opacity=".20"/><path d="M 907.1 361.4 L 885.1 407.0 L 917.7 410.1 Z" fill="#0B0B0C" fill-opacity=".20"/><path d="M 889.1 347.3 L 839.0 340.5 L 846.1 372.4 Z" fill="#0B0B0C" fill-opacity=".20"/><path d="M 896.9 325.8 L 888.0 276.1 L 859.8 292.7 Z" fill="#0B0B0C" fill-opacity=".20"/><path d="M 919.8 326.7 L 964.4 302.7 L 939.8 281.1 Z" fill="#0B0B0C" fill-opacity=".20"/><path d="M 940.6 311.4 A 44.9 44.9 0 0 1 940.6 372.6" stroke="#D6392E" stroke-width="16.5" stroke-linecap="round" fill="none"/><circle cx="908" cy="342" r="11" fill="#0B0B0C" fill-opacity=".45"/><g mask="url(#bck11E2A4Asolid2)"><path d="M 60.0 393.4 C 60.0 374.5 52.9 336.3 60.0 307.3 C 67.1 278.4 65.1 274.6 92.4 261.7 C 119.7 248.9 133.1 254.1 184.2 249.1 C 235.3 244.1 275.9 243.4 324.6 239.0 C 373.3 234.5 370.2 241.1 405.6 228.8 C 441.0 216.6 449.4 200.5 485.5 183.2 C 521.6 166.0 525.6 159.8 569.8 150.3 C 614.0 140.9 634.6 141.3 686.4 140.2 C 738.2 139.1 752.9 137.5 805.2 145.3 C 857.5 153.1 876.5 158.9 924.0 175.7 C 971.5 192.4 984.4 202.3 1021.2 221.2 C 1058.0 240.2 1067.2 245.0 1091.4 261.7 C 1115.6 278.5 1120.7 268.2 1131.4 297.2 C 1142.1 326.2 1138.1 372.3 1140.0 393.4 L 60.0 393.4 Z" fill="#1E2A4A"/><path d="M 20 367.1 L 1180 361.0 L 1180 433.4 L 20 433.4 Z" fill="#17213A"/><path d="M 20 314 L 1180 307" stroke="#505972" stroke-width="3" stroke-opacity=".65"/><path d="M 433 292 L 438 413" stroke="#101626" stroke-width="2.4" stroke-opacity=".75"/><path d="M 713 292 L 718 413" stroke="#101626" stroke-width="2.4" stroke-opacity=".75"/><rect x="492" y="305" width="36" height="7" rx="3.5" fill="#101626"/><rect x="773" y="305" width="36" height="7" rx="3.5" fill="#101626"/><path d="M 33 280 l 92 -11 l 2 15 l -94 10 Z" fill="#F2F5FF"/><path d="M 1055 270 l 104 10 l -1 15 l -104 -11 Z" fill="#6AAEFD"/><circle cx="1016" cy="317" r="9" fill="none" stroke="#101626" stroke-width="2.5"/></g><path d="M 435.6 244.0 C 451.0 234.0 473.8 215.7 505.5 198.4 C 537.2 181.2 540.0 175.0 579.8 165.5 C 619.6 156.1 639.0 156.5 686.4 155.4 C 733.8 154.3 747.3 152.7 795.2 160.5 C 843.1 168.3 860.9 174.1 904.0 190.8 C 947.1 207.6 972.0 226.4 991.2 236.4 L 991.2 292.1 L 435.6 292.1 Z" fill="#080D17"/><path d="M 725 165 L 725 292" stroke="#1E2A4A" stroke-width="11"/><path d="M 440 215 l -30 -4 l -3 15 l 32 4 Z" fill="#17213A"/><path d="M 346 388 L 816 388 L 812 402 L 350 402 Z" fill="#1A1C20"/><path d="M 44 392 L 160 388 L 156 403 L 38 404 Z" fill="#1A1C20"/><path d="M 1010 390 L 1154 394 L 1148 406 L 1010 406 Z" fill="#1A1C20"/><path d="M 1028 394 L 1033 405" stroke="#5A5C5E" stroke-width="3"/><path d="M 1054 394 L 1059 405" stroke="#5A5C5E" stroke-width="3"/><path d="M 1080 394 L 1085 405" stroke="#5A5C5E" stroke-width="3"/><path d="M 1106 394 L 1111 405" stroke="#5A5C5E" stroke-width="3"/><path d="M 30 430.5 L 1170 430.5" stroke="#0B0B0C" stroke-opacity=".14" stroke-width="1.5"/></svg>