<svg xmlns="http://www.w3.org/2000/svg" viewBox="0 0 600 400" fill="none" role="img" aria-label="Platzhalter: Klappenabgasanlage mit Doppelendrohr"><ellipse cx="300" cy="338" rx="215" ry="17" fill="#0B0B0C" fill-opacity=".09"/><path d="M 74 214 L 190 214" stroke="#8A9099" stroke-width="30" stroke-linecap="round"/><rect x="186" y="164" width="188" height="104" rx="26" fill="#8A9099"/><rect x="186" y="164" width="188" height="34" rx="17" fill="#DCDEE3"/><rect x="232" y="206" width="96" height="9" rx="4.5" fill="#0B0B0C" fill-opacity=".25"/><path d="M 374 200 L 418 186" stroke="#8A9099" stroke-width="26" stroke-linecap="round"/><path d="M 374 236 L 418 250" stroke="#8A9099" stroke-width="26" stroke-linecap="round"/><ellipse cx="452" cy="184" rx="21" ry="34" fill="#2A2E35"/><ellipse cx="452" cy="184" rx="21" ry="34" fill="none" stroke="#DCDEE3" stroke-width="7"/><ellipse cx="452" cy="184" rx="10" ry="19" fill="#0B0B0C"/><ellipse cx="452" cy="252" rx="21" ry="34" fill="#2A2E35"/><ellipse cx="452" cy="252" rx="21" ry="34" fill="none" stroke="#DCDEE3" stroke-width="7"/><ellipse cx="452" cy="252" rx="10" ry="19" fill="#0B0B0C"/><circle cx="280" cy="140" r="15" fill="#E30613"/><path d="M 280 155 L 280 168" stroke="#E30613" stroke-width="7"/></svg>