<svg xmlns="http://www.w3.org/2000/svg" viewBox="0 0 600 400" fill="none" role="img" aria-label="Platzhalter: Kolben mit Pleuel"><ellipse cx="300" cy="346" rx="215" ry="17" fill="#0B0B0C" fill-opacity=".09"/><rect x="118.0" y="120" width="84" height="116" rx="10" fill="#8A9099"/><rect x="118.0" y="120" width="84" height="22" rx="10" fill="#DCDEE3"/><rect x="118.0" y="150" width="84" height="6" fill="#0B0B0C" fill-opacity=".38"/><rect x="118.0" y="163" width="84" height="6" fill="#0B0B0C" fill-opacity=".38"/><rect x="118.0" y="176" width="84" height="6" fill="#0B0B0C" fill-opacity=".38"/><circle cx="160" cy="212" r="13" fill="#0B0B0C" fill-opacity=".55"/><path d="M 147 224 L 152 308 L 168 308 L 173 224 Z" fill="#2A2E35"/><circle cx="160" cy="316" r="20" fill="#2A2E35"/><circle cx="160" cy="316" r="9" fill="#DCDEE3"/><rect x="258.0" y="126" width="84" height="116" rx="10" fill="#8A9099"/><rect x="258.0" y="126" width="84" height="22" rx="10" fill="#DCDEE3"/><rect x="258.0" y="156" width="84" height="6" fill="#0B0B0C" fill-opacity=".38"/><rect x="258.0" y="169" width="84" height="6" fill="#0B0B0C" fill-opacity=".38"/><rect x="258.0" y="182" width="84" height="6" fill="#0B0B0C" fill-opacity=".38"/><circle cx="300" cy="218" r="13" fill="#0B0B0C" fill-opacity=".55"/><path d="M 287 230 L 292 314 L 308 314 L 313 230 Z" fill="#2A2E35"/><circle cx="300" cy="322" r="20" fill="#2A2E35"/><circle cx="300" cy="322" r="9" fill="#DCDEE3"/><rect x="398.0" y="132" width="84" height="116" rx="10" fill="#8A9099"/><rect x="398.0" y="132" width="84" height="22" rx="10" fill="#DCDEE3"/><rect x="398.0" y="162" width="84" height="6" fill="#0B0B0C" fill-opacity=".38"/><rect x="398.0" y="175" width="84" height="6" fill="#0B0B0C" fill-opacity=".38"/><rect x="398.0" y="188" width="84" height="6" fill="#0B0B0C" fill-opacity=".38"/><circle cx="440" cy="224" r="13" fill="#0B0B0C" fill-opacity=".55"/><path d="M 427 236 L 432 320 L 448 320 L 453 236 Z" fill="#2A2E35"/><circle cx="440" cy="328" r="20" fill="#2A2E35"/><circle cx="440" cy="328" r="9" fill="#DCDEE3"/></svg>